<?xml version="1.0" encoding="utf-8"?><!-- Uploaded to: SVG Repo, www.svgrepo.com, Generator: SVG Repo Mixer Tools -->
<svg width="800px" height="800px" viewBox="0 0 24 24" fill="none" xmlns="http://www.w3.org/2000/svg">
<path d="M16.5 14C16.2164 12.8589 14.981 12 13.5 12C12.019 12 10.7836 12.8589 10.5 14M13.5 8H13.51M18 21H10.2C7.67976 21 6.41965 21 5.45704 20.5095C4.61031 20.0781 3.9219 19.3897 3.49047 18.543C3 17.5804 3 16.3202 3 13.8V6M9.2 18H17.8C18.9201 18 19.4802 18 19.908 17.782C20.2843 17.5903 20.5903 17.2843 20.782 16.908C21 16.4802 21 15.9201 21 14.8V6.2C21 5.0799 21 4.51984 20.782 4.09202C20.5903 3.71569 20.2843 3.40973 19.908 3.21799C19.4802 3 18.9201 3 17.8 3H9.2C8.0799 3 7.51984 3 7.09202 3.21799C6.71569 3.40973 6.40973 3.71569 6.21799 4.09202C6 4.51984 6 5.07989 6 6.2V14.8C6 15.9201 6 16.4802 6.21799 16.908C6.40973 17.2843 6.71569 17.5903 7.09202 17.782C7.51984 18 8.0799 18 9.2 18ZM14.5 8C14.5 8.55228 14.0523 9 13.5 9C12.9477 9 12.5 8.55228 12.5 8C12.5 7.44772 12.9477 7 13.5 7C14.0523 7 14.5 7.44772 14.5 8Z" stroke="#1C274C" stroke-width="2" stroke-linecap="round" stroke-linejoin="round"/>
</svg>